<?xml version="1.0" encoding="UTF-8" standalone="no"?>
<!-- Created with Inkscape (http://www.inkscape.org/) -->

<svg
   width="192.10327mm"
   height="183.72591mm"
   viewBox="0 0 192.10327 183.72591"
   version="1.1"
   id="svg1"
   xml:space="preserve"
   inkscape:version="1.4.2 (ebf0e940d0, 2025-05-08)"
   sodipodi:docname="logo.svg"
   xmlns:inkscape="http://www.inkscape.org/namespaces/inkscape"
   xmlns:sodipodi="http://sodipodi.sourceforge.net/DTD/sodipodi-0.dtd"
   xmlns:xlink="http://www.w3.org/1999/xlink"
   xmlns="http://www.w3.org/2000/svg"
   xmlns:svg="http://www.w3.org/2000/svg"><sodipodi:namedview
     id="namedview1"
     pagecolor="#ffffff"
     bordercolor="#000000"
     borderopacity="0.25"
     inkscape:showpageshadow="2"
     inkscape:pageopacity="0.0"
     inkscape:pagecheckerboard="0"
     inkscape:deskcolor="#d1d1d1"
     inkscape:document-units="mm"
     inkscape:zoom="0.85"
     inkscape:cx="262.94118"
     inkscape:cy="369.41176"
     inkscape:window-width="1920"
     inkscape:window-height="969"
     inkscape:window-x="0"
     inkscape:window-y="0"
     inkscape:window-maximized="1"
     inkscape:current-layer="layer1" /><defs
     id="defs1"><linearGradient
       id="linearGradient1"
       inkscape:collect="always"><stop
         style="stop-color:#ce54b8;stop-opacity:1;"
         offset="0"
         id="stop1" /><stop
         style="stop-color:#28c1bf;stop-opacity:1;"
         offset="1"
         id="stop2" /></linearGradient><linearGradient
       inkscape:collect="always"
       xlink:href="#linearGradient1"
       id="linearGradient2"
       x1="10.812558"
       y1="129.00648"
       x2="202.91583"
       y2="129.00648"
       gradientUnits="userSpaceOnUse" /></defs><g
     inkscape:label="Layer 1"
     inkscape:groupmode="layer"
     id="layer1"
     transform="translate(-10.812558,-37.143527)"><path
       style="fill:url(#linearGradient2)"
       d="m 66.008985,220.61845 c 2.014689,-3.31518 6.142875,-8.34748 9.356459,-11.40562 4.911123,-4.67357 9.537913,-7.67712 20.246068,-13.14306 14.602998,-7.45403 21.665338,-12.27123 29.389038,-20.04616 6.04839,-6.0885 14.18153,-16.02574 21.27428,-25.99336 6.57273,-9.23682 11.03412,-14.76235 15.60171,-19.32308 5.07724,-5.06961 7.96699,-6.62712 13.41616,-7.23101 l 2.79854,-0.31014 0.60897,-1.6818 c 1.31421,-3.62953 4.32812,-6.61651 7.79567,-7.72603 3.76667,-1.20523 8.26552,-0.52579 11.29746,1.7062 3.11646,2.29421 4.82933,5.39272 5.0415,9.11986 0.23544,4.13612 -0.94949,7.43794 -3.63736,10.13553 -3.81272,3.8265 -9.20504,4.70852 -14.22138,2.32617 -0.72248,-0.34312 -2.17223,-1.51585 -3.4044,-2.75388 l -2.14605,-2.15627 -1.69041,0.17641 c -6.8778,0.71778 -8.70748,2.82463 -19.29336,22.21595 -9.80087,17.95336 -16.30809,27.22249 -25.56834,36.42053 -7.85312,7.80036 -14.6557,12.76218 -23.63599,17.24015 -9.12427,4.54976 -14.848111,6.23808 -42.818518,12.62984 -0.457082,0.10445 -0.563598,0.0524 -0.410047,-0.20023 z M 192.85742,129.54881 c 3.24207,-2.1455 2.43892,-6.99429 -1.34638,-8.12839 -3.06612,-0.91864 -6.266,2.40359 -5.3286,5.53234 0.42781,1.42791 1.25753,2.41073 2.5416,3.01058 1.36372,0.63705 2.75521,0.4975 4.13338,-0.41453 z m -182.044862,6.38503 c 0,-41.141976 0.02976,-74.892886 0.06615,-75.002027 0.03638,-0.10914 4.650052,-0.198437 10.252603,-0.198437 11.68826,0 12.102207,0.06225 14.871015,2.236204 0.842961,0.661858 5.124752,5.07291 9.515093,9.802337 4.390341,4.729427 10.194749,10.97582 12.898685,13.880874 2.703936,2.905055 7.523238,8.084273 10.709562,11.509375 7.235725,7.777964 10.459927,11.122254 10.722873,11.122254 0.112366,0 0.847504,-0.68484 1.63364,-1.52186 0.786136,-0.83702 3.215275,-3.42648 5.398087,-5.75435 13.826354,-14.745172 20.211554,-21.163394 24.477094,-24.603642 6.22994,-5.024587 11.21782,-7.631625 20.23749,-10.577621 4.08772,-1.335126 7.35333,-2.583568 9.16625,-3.50425 2.77564,-1.4096 6.669,-4.278225 7.71607,-5.685186 l 0.53181,-0.714614 -0.68021,-1.534344 c -0.98089,-2.212595 -1.25265,-3.40881 -1.25432,-5.521217 -0.004,-4.733242 2.84577,-9.421471 6.95631,-11.445083 4.85998,-2.39256 10.53407,-1.369102 14.30031,2.579402 6.48422,6.798035 3.61651,17.890598 -5.41143,20.931892 -1.3455,0.453265 -2.18035,0.545371 -4.43521,0.48932 l -2.77772,-0.06905 -1.3403,1.477223 c -4.36632,4.81236 -9.55328,8.013726 -18.53822,11.441703 -9.58278,3.656067 -14.71057,7.101846 -21.70091,14.582629 -1.89457,2.027483 -8.2589,9.0291 -14.142965,15.559148 -15.497481,17.19889 -27.08116,29.66677 -27.562845,29.66677 -0.419244,0 -4.979941,-4.8465 -17.179665,-18.25625 -3.574524,-3.92906 -8.395675,-9.22001 -10.713669,-11.75767 -2.317994,-2.53766 -5.405159,-5.946482 -6.860367,-7.575158 -1.455208,-1.628675 -2.738886,-2.906578 -2.852616,-2.839783 -0.11373,0.0668 -0.192002,20.416331 -0.173937,45.221181 0.02976,40.86886 -0.0067,45.16014 -0.389093,45.74369 -0.387409,0.59126 -5.956999,6.57617 -17.850609,19.18169 -2.540092,2.69214 -4.836735,5.12961 -5.103651,5.41661 -0.470765,0.50619 -0.485301,-1.71869 -0.485301,-74.28176 z M 161.48736,53.646027 c 1.37574,-0.779172 2.24433,-2.314219 2.25,-3.976399 0.009,-2.529 -1.84024,-4.442077 -4.32939,-4.479707 -1.44081,-0.02178 -2.64324,0.633449 -3.60897,1.966604 -0.65553,0.90493 -0.78853,1.343012 -0.78853,2.597213 0,1.888747 0.71498,3.064277 2.3733,3.902034 1.48951,0.752477 2.76313,0.749453 4.10359,-0.0097 z M 67.926325,172.45143 c -1.799084,-1.92938 -5.249873,-5.70962 -7.66842,-8.40052 -2.418548,-2.69089 -5.662984,-6.30049 -7.209859,-8.02133 -1.546875,-1.72084 -2.875465,-3.38771 -2.952421,-3.70417 -0.07696,-0.31645 -0.106739,-4.91653 -0.06618,-10.2224 l 0.07374,-9.64703 6.592207,7.26578 c 10.920288,12.03609 14.219812,15.60015 14.442247,15.60015 0.235424,0 9.053189,-9.13551 18.38846,-19.05109 3.346979,-3.55504 9.478696,-10.04373 13.626051,-14.41932 4.14734,-4.37559 9.19693,-9.73734 11.22132,-11.915 13.56271,-14.589589 18.66972,-18.200392 28.67567,-20.274564 2.67739,-0.555005 3.39749,-0.584156 13.09308,-0.53004 14.26691,0.07963 14.93626,-0.03096 20.01171,-3.306172 l 2.38948,-1.54194 -0.15843,-2.250205 c -0.27457,-3.900046 0.91922,-7.139383 3.63012,-9.850287 6.65637,-6.656372 18.08271,-3.444149 20.47937,5.75725 1.54942,5.948601 -1.286,12.217853 -6.66976,14.747165 -1.55518,0.730631 -2.13296,0.853095 -4.43403,0.93982 -2.91555,0.109884 -4.8036,-0.355919 -6.80136,-1.677975 l -1.01528,-0.671879 -2.12476,1.661184 c -3.64246,2.847767 -6.70557,4.871807 -8.33522,5.50774 -1.49038,0.581589 -2.02714,0.621323 -10.95983,0.811304 -9.13934,0.194377 -11.63452,0.422075 -13.80801,1.260049 l -0.71114,0.27418 -0.10153,18.20291 c -0.086,15.42356 -0.16371,18.40755 -0.50879,19.5431 -1.28033,4.21318 -5.17756,10.0544 -11.55111,17.31294 -2.12611,2.42133 -9.23162,9.78958 -9.4405,9.78958 -0.0698,0 -0.12866,-9.97148 -0.13089,-22.15885 -0.002,-13.48031 -0.10217,-22.31406 -0.25457,-22.55514 -0.21843,-0.34553 -0.3776,-0.32858 -1.24254,0.13229 -1.51202,0.80565 -3.65529,2.91554 -12.89259,12.69182 -25.320036,26.79741 -31.485127,33.28951 -36.879057,38.8352 -1.804621,1.85539 -3.316,3.37343 -3.35862,3.37343 -0.04262,0 -1.54947,-1.57859 -3.348554,-3.50798 z M 193.04924,84.946181 c 1.03474,-0.765016 1.91543,-2.48484 1.9075,-3.724988 -0.0188,-2.931671 -2.83507,-5.211699 -5.53841,-4.483766 -3.82687,1.03047 -4.60507,6.287833 -1.23668,8.354774 1.42878,0.876739 3.57116,0.812471 4.86759,-0.14602 z"
       id="path1" /></g></svg>
