<?xml version="1.0" encoding="UTF-8" standalone="no"?>
<svg
   viewBox="0 0 404.61618 770.91492"
   version="1.1"
   id="svg1"
   sodipodi:docname="logo_orange.svg"
   xml:space="preserve"
   inkscape:version="1.4.2 (ebf0e940d0, 2025-05-08)"
   width="404.61618"
   height="770.91492"
   xmlns:inkscape="http://www.inkscape.org/namespaces/inkscape"
   xmlns:sodipodi="http://sodipodi.sourceforge.net/DTD/sodipodi-0.dtd"
   xmlns:xlink="http://www.w3.org/1999/xlink"
   xmlns="http://www.w3.org/2000/svg"
   xmlns:svg="http://www.w3.org/2000/svg"><defs
     id="defs1"><linearGradient
       id="linearGradient1"
       inkscape:collect="always"><stop
         style="stop-color:#fbbf24;stop-opacity:1;"
         offset="0"
         id="stop1" /><stop
         style="stop-color:#f59e0b;stop-opacity:1;"
         offset="1"
         id="stop2" /></linearGradient><linearGradient
       inkscape:collect="always"
       xlink:href="#linearGradient1"
       id="linearGradient2"
       x1="314.60916"
       y1="509.72931"
       x2="719.22534"
       y2="509.72931"
       gradientUnits="userSpaceOnUse"
       gradientTransform="translate(-314.60917,-124.27185)" /></defs><sodipodi:namedview
     id="namedview1"
     pagecolor="#ffffff"
     bordercolor="#000000"
     borderopacity="0.25"
     inkscape:showpageshadow="2"
     inkscape:pageopacity="0.0"
     inkscape:pagecheckerboard="0"
     inkscape:deskcolor="#d1d1d1"
     inkscape:zoom="0.61077422"
     inkscape:cx="82.681944"
     inkscape:cy="401.13022"
     inkscape:window-width="1920"
     inkscape:window-height="969"
     inkscape:window-x="0"
     inkscape:window-y="0"
     inkscape:window-maximized="1"
     inkscape:current-layer="svg1" /><path
     style="fill:url(#linearGradient2)"
     d="m 176.37371,769.28001 c -0.33012,-1.65061 -1.34781,-9.69378 -2.26153,-17.87372 -3.46749,-31.04212 0.17587,-59.1037 11.27906,-86.87263 8.19957,-20.507 17.47433,-34.7864 35.07409,-54 16.75635,-18.29283 25.43241,-25.7026 63.20911,-53.98353 61.68373,-46.17855 85.84727,-70.36223 100.92878,-101.01294 6.06638,-12.32892 13.07122,-31.6378 13.07122,-36.03087 0,-5.98149 1.72004,-1.48729 3.93339,10.27734 3.23761,17.20894 3.97855,44.10395 1.65207,59.96803 -6.13664,41.84523 -26.1779,80.80524 -58.0629,112.87372 -15.10234,15.18925 -21.5961,20.51188 -60.52256,49.60747 -17.325,12.94958 -36,27.31005 -41.5,31.91216 -33.42078,27.96475 -53.54845,53.56325 -63.50207,80.76235 -2.49602,6.82059 -2.74346,7.1486 -3.29866,4.37262 z M 142.73925,687.4917 c -0.12719,-2.04495 -10.40509,-19.11225 -16.83629,-27.95804 -10.83498,-14.90296 -20.50923,-25.7598 -46.781414,-52.5 -27.72735,-28.22128 -37.41985,-39.3843 -47.75481,-55 C 1.6259662,507.09661 -7.5316838,450.42023 6.3255562,397.05469 8.9922862,386.78485 15.991726,367.49367 22.977176,351.16107 l 4.39297,-10.27115 0.58489,11.32187 c 1.25314,24.25758 7.57217,41.40302 21.95062,59.55863 7.70684,9.73139 26.16642,28.23008 53.268784,53.38163 30.47572,28.28209 44.0364,44.00206 52.51896,60.88161 7.70004,15.32241 10.98104,30.3373 10.98104,50.25266 0,16.8975 -2.09018,30.49416 -7.46805,48.57973 -6.11694,20.57107 -9.27502,32.42957 -13.094,49.16761 -1.81958,7.975 -3.3375,14.03112 -3.37314,13.45804 z m 52.63953,-113.58655 c -0.4214,-18.82417 -0.99982,-26.55715 -2.54119,-33.97394 -4.51796,-21.73954 -12.72562,-40.10094 -26.4533,-59.17883 -6.15622,-8.55554 -15.2616,-18.45902 -38.3567,-41.71872 -16.6563,-16.775 -33.703984,-34.775 -37.883744,-40 -22.81053,-28.51477 -32.81315,-56.87916 -32.79619,-93 0.0133,-28.23871 6.46072,-52.2005 22.94936,-85.29073 6.37025,-12.78412 26.189264,-46.23845 26.940524,-45.47538 0.1441,0.14636 -0.8226,4.31611 -2.14821,9.26611 -9.208814,34.3867 -6.358074,67.57791 8.33118,97 9.88889,19.80713 22.39596,35.84639 55.75419,71.5 20.97869,22.42224 30.307,33.02447 39.59297,45 23.979,30.92419 33.18485,54.06991 33.08832,83.19194 -0.10144,30.59992 -13.26172,66.42688 -39.11786,106.49267 l -6.81377,10.55837 z m 74.55141,-36.62149 c 6.83462,-21.04198 9.09639,-34.31488 9.15926,-53.75 0.0587,-18.13344 -1.01507,-25.66294 -6.06063,-42.5 -3.42922,-11.44329 -11.84945,-28.93666 -19.62849,-40.77896 -11.67895,-17.77929 -34.74488,-46.21644 -56.04081,-69.09069 -48.57769,-52.17795 -67.1652,-88.74789 -65.37931,-128.63035 1.72278,-38.47338 17.15229,-70.80172 62.523,-130.999999 15.06988,-19.99484 52.49652,-67.9302895 55.78325,-71.4462695 0.74358,-0.79546 -0.46482,3.92954 -2.68534,10.4999995 -7.73209,22.87906 -12.69789,46.0049 -14.97624,69.74463 -1.6823,17.52911 -0.75536,46.631929 1.97975,62.157589 5.60819,31.83442 23.71963,70.27055 50.91131,108.04405 5.93886,8.25 15.51035,21.54197 21.26999,29.53771 26.08123,36.20689 43.12785,71.26114 51.0424,104.96229 3.17409,13.51568 3.21728,40.8075 0.0826,52.17544 -9.35218,33.91545 -35.1721,67.01633 -80.79203,103.57456 -5.66221,4.5375 -10.45474,8.25 -10.65006,8.25 -0.19532,0 1.3623,-5.2875 3.46137,-11.75 z"
     id="path1" /></svg>
